<svg xmlns="http://www.w3.org/2000/svg" xmlns:xlink="http://www.w3.org/1999/xlink" width="800" zoomAndPan="magnify" viewBox="0 0 600 149.999998" height="200" preserveAspectRatio="xMidYMid meet" version="1.2"><defs><clipPath id="5c3e6e8a60"><path d="M 0 4.460938 L 141.078125 4.460938 L 141.078125 145.539062 L 0 145.539062 Z M 0 4.460938 "/></clipPath><clipPath id="0bb291d986"><path d="M 8.25 4.460938 L 132.828125 4.460938 C 137.382812 4.460938 141.078125 8.15625 141.078125 12.710938 L 141.078125 137.289062 C 141.078125 141.84375 137.382812 145.539062 132.828125 145.539062 L 8.25 145.539062 C 3.695312 145.539062 0 141.84375 0 137.289062 L 0 12.710938 C 0 8.15625 3.695312 4.460938 8.25 4.460938 Z M 8.25 4.460938 "/></clipPath><clipPath id="1ff70cdb06"><path d="M 0 0.460938 L 141.078125 0.460938 L 141.078125 141.539062 L 0 141.539062 Z M 0 0.460938 "/></clipPath><clipPath id="ecfab12908"><path d="M 8.25 0.460938 L 132.828125 0.460938 C 137.382812 0.460938 141.078125 4.15625 141.078125 8.710938 L 141.078125 133.289062 C 141.078125 137.84375 137.382812 141.539062 132.828125 141.539062 L 8.25 141.539062 C 3.695312 141.539062 0 137.84375 0 133.289062 L 0 8.710938 C 0 4.15625 3.695312 0.460938 8.25 0.460938 Z M 8.25 0.460938 "/></clipPath><clipPath id="00652aa212"><rect x="0" width="142" y="0" height="142"/></clipPath><clipPath id="1f6fb7d0df"><path d="M 153.042969 4.460938 L 294.121094 4.460938 L 294.121094 145.539062 L 153.042969 145.539062 Z M 153.042969 4.460938 "/></clipPath><clipPath id="aea588465d"><path d="M 161.292969 4.460938 L 285.871094 4.460938 C 290.429688 4.460938 294.121094 8.15625 294.121094 12.710938 L 294.121094 137.289062 C 294.121094 141.84375 290.429688 145.539062 285.871094 145.539062 L 161.292969 145.539062 C 156.738281 145.539062 153.042969 141.84375 153.042969 137.289062 L 153.042969 12.710938 C 153.042969 8.15625 156.738281 4.460938 161.292969 4.460938 Z M 161.292969 4.460938 "/></clipPath><clipPath id="53c10da623"><path d="M 0.0429688 0.460938 L 141.121094 0.460938 L 141.121094 141.539062 L 0.0429688 141.539062 Z M 0.0429688 0.460938 "/></clipPath><clipPath id="c22e2e84f0"><path d="M 8.292969 0.460938 L 132.871094 0.460938 C 137.429688 0.460938 141.121094 4.15625 141.121094 8.710938 L 141.121094 133.289062 C 141.121094 137.84375 137.429688 141.539062 132.871094 141.539062 L 8.292969 141.539062 C 3.738281 141.539062 0.0429688 137.84375 0.0429688 133.289062 L 0.0429688 8.710938 C 0.0429688 4.15625 3.738281 0.460938 8.292969 0.460938 Z M 8.292969 0.460938 "/></clipPath><clipPath id="8f7880a884"><rect x="0" width="142" y="0" height="142"/></clipPath><clipPath id="bae72d43a1"><path d="M 305.878906 4.460938 L 446.957031 4.460938 L 446.957031 145.539062 L 305.878906 145.539062 Z M 305.878906 4.460938 "/></clipPath><clipPath id="478b3afae2"><path d="M 314.128906 4.460938 L 438.707031 4.460938 C 443.261719 4.460938 446.957031 8.15625 446.957031 12.710938 L 446.957031 137.289062 C 446.957031 141.84375 443.261719 145.539062 438.707031 145.539062 L 314.128906 145.539062 C 309.570312 145.539062 305.878906 141.84375 305.878906 137.289062 L 305.878906 12.710938 C 305.878906 8.15625 309.570312 4.460938 314.128906 4.460938 Z M 314.128906 4.460938 "/></clipPath><clipPath id="8132ad1f6b"><path d="M 0.878906 0.460938 L 141.957031 0.460938 L 141.957031 141.539062 L 0.878906 141.539062 Z M 0.878906 0.460938 "/></clipPath><clipPath id="45768dee23"><path d="M 9.128906 0.460938 L 133.707031 0.460938 C 138.261719 0.460938 141.957031 4.15625 141.957031 8.710938 L 141.957031 133.289062 C 141.957031 137.84375 138.261719 141.539062 133.707031 141.539062 L 9.128906 141.539062 C 4.570312 141.539062 0.878906 137.84375 0.878906 133.289062 L 0.878906 8.710938 C 0.878906 4.15625 4.570312 0.460938 9.128906 0.460938 Z M 9.128906 0.460938 "/></clipPath><clipPath id="48b4ec173f"><rect x="0" width="142" y="0" height="142"/></clipPath><clipPath id="a705e1330c"><rect x="0" width="94" y="0" height="150"/></clipPath><clipPath id="f2d5b404bb"><rect x="0" width="99" y="0" height="150"/></clipPath><clipPath id="49571b8b09"><rect x="0" width="38" y="0" height="150"/></clipPath><clipPath id="e19c9c1d69"><path d="M 458.921875 4.460938 L 600 4.460938 L 600 145.539062 L 458.921875 145.539062 Z M 458.921875 4.460938 "/></clipPath><clipPath id="1a155c3c95"><path d="M 467.171875 4.460938 L 591.75 4.460938 C 596.304688 4.460938 600 8.15625 600 12.710938 L 600 137.289062 C 600 141.84375 596.304688 145.539062 591.75 145.539062 L 467.171875 145.539062 C 462.617188 145.539062 458.921875 141.84375 458.921875 137.289062 L 458.921875 12.710938 C 458.921875 8.15625 462.617188 4.460938 467.171875 4.460938 Z M 467.171875 4.460938 "/></clipPath><clipPath id="2d421871be"><path d="M 0.921875 0.460938 L 142 0.460938 L 142 141.539062 L 0.921875 141.539062 Z M 0.921875 0.460938 "/></clipPath><clipPath id="0ab834f338"><path d="M 9.171875 0.460938 L 133.75 0.460938 C 138.304688 0.460938 142 4.15625 142 8.710938 L 142 133.289062 C 142 137.84375 138.304688 141.539062 133.75 141.539062 L 9.171875 141.539062 C 4.617188 141.539062 0.921875 137.84375 0.921875 133.289062 L 0.921875 8.710938 C 0.921875 4.15625 4.617188 0.460938 9.171875 0.460938 Z M 9.171875 0.460938 "/></clipPath><clipPath id="ebb6d94ff6"><rect x="0" width="142" y="0" height="142"/></clipPath><clipPath id="fcd34ca329"><rect x="0" width="93" y="0" height="150"/></clipPath></defs><g id="d8c530961e"><g clip-rule="nonzero" clip-path="url(#5c3e6e8a60)"><g clip-rule="nonzero" clip-path="url(#0bb291d986)"><g transform="matrix(1,0,0,1,0,4)"><g clip-path="url(#00652aa212)"><g clip-rule="nonzero" clip-path="url(#1ff70cdb06)"><g clip-rule="nonzero" clip-path="url(#ecfab12908)"><path style=" stroke:none;fill-rule:nonzero;fill:#4b38ad;fill-opacity:1;" d="M 0 0.460938 L 141.078125 0.460938 L 141.078125 141.539062 L 0 141.539062 Z M 0 0.460938 "/></g></g></g></g></g></g><g clip-rule="nonzero" clip-path="url(#1f6fb7d0df)"><g clip-rule="nonzero" clip-path="url(#aea588465d)"><g transform="matrix(1,0,0,1,153,4)"><g clip-path="url(#8f7880a884)"><g clip-rule="nonzero" clip-path="url(#53c10da623)"><g clip-rule="nonzero" clip-path="url(#c22e2e84f0)"><path style=" stroke:none;fill-rule:nonzero;fill:#0cdfbf;fill-opacity:1;" d="M 0.0429688 0.460938 L 141.121094 0.460938 L 141.121094 141.539062 L 0.0429688 141.539062 Z M 0.0429688 0.460938 "/></g></g></g></g></g></g><g clip-rule="nonzero" clip-path="url(#bae72d43a1)"><g clip-rule="nonzero" clip-path="url(#478b3afae2)"><g transform="matrix(1,0,0,1,305,4)"><g clip-path="url(#48b4ec173f)"><g clip-rule="nonzero" clip-path="url(#8132ad1f6b)"><g clip-rule="nonzero" clip-path="url(#45768dee23)"><path style=" stroke:none;fill-rule:nonzero;fill:#df800c;fill-opacity:1;" d="M 0.878906 0.460938 L 141.957031 0.460938 L 141.957031 141.539062 L 0.878906 141.539062 Z M 0.878906 0.460938 "/></g></g></g></g></g></g><g transform="matrix(1,0,0,1,25,-0.000000000000007527)"><g clip-path="url(#a705e1330c)"><g style="fill:#ffffff;fill-opacity:1;"><g transform="translate(0.573982, 116.815059)"><path style="stroke:none" d="M 88.71875 -86.375 L 58.078125 0 L 31.75 0 L 1.109375 -86.375 L 23.5 -86.375 L 44.90625 -21.171875 L 66.453125 -86.375 Z M 88.71875 -86.375 "/></g></g></g></g><g transform="matrix(1,0,0,1,175,-0.000000000000007527)"><g clip-path="url(#f2d5b404bb)"><g style="fill:#ffffff;fill-opacity:1;"><g transform="translate(0.222011, 116.815059)"><path style="stroke:none" d="M 48.484375 0.859375 C 40.359375 0.859375 32.910156 -1.023438 26.140625 -4.796875 C 19.378906 -8.566406 14.007812 -13.835938 10.03125 -20.609375 C 6.050781 -27.378906 4.0625 -34.988281 4.0625 -43.4375 C 4.0625 -51.882812 6.050781 -59.472656 10.03125 -66.203125 C 14.007812 -72.929688 19.378906 -78.179688 26.140625 -81.953125 C 32.910156 -85.722656 40.359375 -87.609375 48.484375 -87.609375 C 56.597656 -87.609375 64.039062 -85.722656 70.8125 -81.953125 C 77.582031 -78.179688 82.914062 -72.929688 86.8125 -66.203125 C 90.707031 -59.472656 92.65625 -51.882812 92.65625 -43.4375 C 92.65625 -34.988281 90.6875 -27.378906 86.75 -20.609375 C 82.8125 -13.835938 77.476562 -8.566406 70.75 -4.796875 C 64.019531 -1.023438 56.597656 0.859375 48.484375 0.859375 Z M 48.484375 -18.328125 C 55.367188 -18.328125 60.882812 -20.625 65.03125 -25.21875 C 69.175781 -29.8125 71.25 -35.882812 71.25 -43.4375 C 71.25 -51.0625 69.175781 -57.148438 65.03125 -61.703125 C 60.882812 -66.253906 55.367188 -68.53125 48.484375 -68.53125 C 41.503906 -68.53125 35.941406 -66.273438 31.796875 -61.765625 C 27.660156 -57.253906 25.59375 -51.144531 25.59375 -43.4375 C 25.59375 -35.8125 27.660156 -29.71875 31.796875 -25.15625 C 35.941406 -20.601562 41.503906 -18.328125 48.484375 -18.328125 Z M 48.484375 -18.328125 "/></g></g></g></g><g transform="matrix(1,0,0,1,358,-0.000000000000007527)"><g clip-path="url(#49571b8b09)"><g style="fill:#ffffff;fill-opacity:1;"><g transform="translate(0.264232, 116.815059)"><path style="stroke:none" d="M 28.671875 -86.375 L 28.671875 0 L 7.625 0 L 7.625 -86.375 Z M 28.671875 -86.375 "/></g></g></g></g><g clip-rule="nonzero" clip-path="url(#e19c9c1d69)"><g clip-rule="nonzero" clip-path="url(#1a155c3c95)"><g transform="matrix(1,0,0,1,458,4)"><g clip-path="url(#ebb6d94ff6)"><g clip-rule="nonzero" clip-path="url(#2d421871be)"><g clip-rule="nonzero" clip-path="url(#0ab834f338)"><path style=" stroke:none;fill-rule:nonzero;fill:#dfc60c;fill-opacity:1;" d="M 0.921875 0.460938 L 142 0.460938 L 142 141.539062 L 0.921875 141.539062 Z M 0.921875 0.460938 "/></g></g></g></g></g></g><g transform="matrix(1,0,0,1,484,-0.000000000000007527)"><g clip-path="url(#fcd34ca329)"><g style="fill:#ffffff;fill-opacity:1;"><g transform="translate(0.11399, 116.815059)"><path style="stroke:none" d="M 61.40625 -15.265625 L 29.15625 -15.265625 L 24 0 L 1.96875 0 L 33.21875 -86.375 L 57.59375 -86.375 L 88.84375 0 L 66.5625 0 Z M 55.984375 -31.5 L 45.28125 -63.125 L 34.703125 -31.5 Z M 55.984375 -31.5 "/></g></g></g></g></g></svg>